<?xml version="1.0" standalone="no"?>
<!DOCTYPE svg PUBLIC "-//W3C//DTD SVG 20010904//EN"
 "http://www.w3.org/TR/2001/REC-SVG-20010904/DTD/svg10.dtd">
<svg version="1.0" xmlns="http://www.w3.org/2000/svg"
 width="3334.000000pt" height="3334.000000pt" viewBox="0 0 3334.000000 3334.000000"
 preserveAspectRatio="xMidYMid meet">

<g transform="translate(0.000000,3334.000000) scale(0.100000,-0.100000)"
fill="#000000" stroke="none">
<path d="M22000 19399 c-298 -33 -606 -172 -796 -357 -191 -187 -360 -580
-453 -1052 -57 -293 -73 -442 -78 -740 -4 -248 -7 -279 -25 -317 -50 -107
-199 -118 -303 -22 -61 56 -95 129 -160 339 -153 498 -332 860 -572 1157 -142
176 -355 359 -508 436 -157 79 -382 130 -575 131 -117 1 -128 -1 -176 -26
-155 -82 -206 -263 -149 -528 126 -595 163 -908 152 -1284 -6 -203 -16 -275
-91 -686 -57 -313 -76 -464 -76 -605 0 -329 137 -597 367 -718 104 -54 184
-70 323 -64 141 7 217 25 340 84 76 37 109 60 166 117 113 113 154 222 154
407 0 114 -18 205 -73 370 -56 166 -70 238 -65 328 4 82 28 116 87 126 45 7
138 -17 199 -52 72 -41 240 -215 311 -323 75 -114 159 -284 196 -400 69 -213
168 -387 273 -480 72 -64 207 -133 309 -157 111 -26 414 -26 528 0 213 49 373
170 458 347 52 108 72 182 88 325 14 124 7 242 -32 540 -91 708 -104 866 -104
1285 1 398 5 430 72 570 46 95 150 203 238 246 53 25 70 28 150 28 53 -1 165
-14 275 -34 245 -43 353 -41 453 8 79 39 125 89 172 187 61 126 67 266 16 381
-33 73 -106 169 -169 220 -101 83 -309 165 -505 199 -115 19 -310 26 -417 14z"/>
<path d="M6878 18980 c-125 -20 -213 -94 -248 -208 -35 -113 -27 -206 54 -657
94 -521 119 -732 120 -1020 0 -243 -8 -301 -104 -740 -90 -412 -94 -439 -95
-625 0 -132 4 -177 18 -225 58 -187 179 -299 402 -374 148 -49 257 -64 430
-58 167 6 231 20 342 73 180 86 269 246 280 502 7 147 -4 220 -63 436 -37 135
-44 176 -44 252 0 76 4 98 25 141 27 54 75 93 135 111 47 15 159 29 380 47
476 40 726 122 970 320 144 116 241 304 287 559 24 134 22 382 -4 507 -36 167
-119 350 -225 494 -104 141 -290 289 -454 360 -370 160 -890 133 -1373 -70
-54 -23 -75 -26 -133 -23 -64 3 -82 10 -221 82 -84 43 -177 87 -207 98 -64 22
-191 31 -272 18z m1544 -947 c62 -28 134 -96 166 -158 23 -43 27 -62 27 -140
0 -77 -4 -98 -27 -147 -56 -120 -157 -193 -307 -224 -255 -51 -442 45 -458
235 -13 155 152 376 330 442 70 26 201 22 269 -8z"/>
<path d="M13835 18980 c-215 -31 -350 -152 -412 -371 -26 -94 -24 -406 4 -694
37 -368 56 -678 56 -930 1 -336 -20 -521 -114 -1010 -68 -351 -79 -431 -79
-565 0 -295 107 -444 370 -516 69 -19 145 -21 555 -13 156 3 205 1 275 -14
210 -45 380 -121 730 -326 358 -210 542 -292 795 -356 183 -47 372 -69 515
-62 222 12 347 62 475 191 129 129 185 261 185 432 0 212 -99 367 -295 463
-179 88 -387 108 -777 76 -358 -30 -562 -12 -819 71 -201 65 -365 163 -518
309 -155 148 -231 271 -256 411 -42 242 -59 492 -59 869 -1 407 2 434 69 734
97 440 126 756 85 951 -18 82 -67 174 -117 221 -57 52 -148 93 -249 113 -98
18 -339 28 -419 16z"/>
<path d="M24685 18970 c-433 -39 -725 -250 -804 -580 -43 -179 -38 -330 24
-700 46 -277 59 -410 50 -554 -17 -312 -69 -501 -243 -892 -146 -328 -176
-440 -176 -639 0 -196 34 -287 141 -385 63 -58 168 -111 268 -137 95 -24 490
-25 605 -1 165 35 256 92 307 192 20 39 27 71 30 136 6 104 -11 185 -66 307
-64 143 -103 278 -103 353 0 131 81 259 200 317 49 24 69 28 147 28 82 0 97
-3 157 -33 117 -58 187 -164 196 -296 3 -60 -1 -87 -28 -171 -18 -55 -49 -139
-70 -186 -51 -113 -72 -197 -72 -289 -1 -93 13 -145 55 -207 85 -124 260 -173
617 -173 343 0 532 50 646 172 91 98 129 245 106 422 -20 158 -41 211 -238
596 -144 281 -205 465 -239 723 -29 227 -19 405 47 777 59 338 48 607 -31 773
-111 232 -340 384 -651 433 -115 18 -724 27 -875 14z m495 -1216 c77 -23 151
-96 200 -199 70 -146 86 -253 52 -363 -48 -154 -175 -252 -326 -252 -150 0
-273 94 -325 247 -29 87 -27 155 9 266 50 157 141 271 240 302 60 18 86 18
150 -1z"/>
<path d="M11460 18949 c-190 -19 -380 -88 -546 -199 -161 -107 -372 -349 -509
-583 -176 -303 -350 -801 -385 -1106 -18 -151 -8 -428 19 -565 107 -529 427
-954 896 -1189 221 -110 363 -141 650 -141 278 0 414 29 630 134 463 224 800
663 905 1178 61 301 46 588 -49 922 -151 533 -363 924 -653 1206 -117 113
-183 161 -315 228 -190 95 -425 137 -643 115z m201 -1196 c109 -35 209 -177
254 -358 31 -126 0 -246 -90 -343 -73 -79 -129 -106 -232 -110 -71 -4 -89 -1
-137 21 -175 80 -256 275 -197 475 51 171 139 282 253 317 58 18 86 18 149 -2z"/>
<path d="M16363 18949 c-395 -35 -785 -232 -1085 -548 -189 -199 -294 -402
-354 -684 -35 -165 -44 -475 -20 -680 29 -249 82 -470 143 -591 211 -420 597
-708 1087 -812 100 -21 158 -27 338 -31 314 -8 526 19 743 94 246 85 428 218
538 390 67 106 80 148 97 334 31 335 -67 515 -271 496 -77 -7 -164 -54 -314
-172 -139 -109 -248 -176 -354 -219 -71 -28 -85 -31 -201 -31 -138 0 -211 15
-317 65 -75 35 -155 106 -183 164 -21 45 -27 101 -10 111 5 3 85 7 177 9 520
11 944 168 1209 447 176 187 230 352 221 679 -6 207 -23 286 -94 430 -38 78
-61 109 -128 176 -176 174 -410 293 -679 345 -78 16 -418 44 -446 37 -3 0 -46
-4 -97 -9z m283 -720 c127 -23 219 -93 272 -207 36 -76 37 -189 3 -275 -30
-77 -120 -174 -197 -211 -127 -62 -320 -80 -435 -41 -143 49 -217 211 -165
363 39 114 180 283 278 333 34 17 135 45 174 48 6 1 37 -4 70 -10z"/>
<path d="M22640 18110 c-138 -17 -251 -65 -338 -144 -106 -97 -136 -201 -129
-446 3 -130 12 -209 40 -370 56 -320 89 -692 90 -1030 1 -163 -2 -204 -28
-345 -20 -115 -29 -194 -29 -280 -1 -115 0 -123 31 -187 40 -85 97 -141 184
-183 90 -43 187 -59 314 -52 173 9 302 69 378 178 77 110 84 226 31 529 -22
128 -27 183 -27 320 2 340 35 722 95 1070 76 443 53 655 -83 789 -114 113
-334 175 -529 151z"/>
<path d="M18229 14607 c-149 -42 -238 -153 -247 -309 -10 -177 87 -310 258
-354 106 -27 247 -7 338 48 l32 20 0 134 0 134 -70 0 -70 0 0 -96 0 -95 -37
-16 c-48 -20 -136 -14 -188 13 -56 29 -93 80 -107 147 -41 194 168 327 343
218 l52 -32 46 45 c44 45 45 45 26 66 -10 11 -47 35 -82 52 -54 26 -76 31
-156 34 -56 3 -110 -1 -138 -9z"/>
<path d="M20635 14606 c-107 -34 -177 -92 -222 -184 -22 -45 -27 -69 -27 -136
-1 -107 21 -170 84 -240 114 -124 313 -151 488 -65 l62 30 0 135 0 134 -70 0
-70 0 0 -95 c0 -95 0 -96 -27 -107 -86 -34 -190 -16 -253 45 -44 43 -60 84
-60 155 0 75 31 136 89 177 39 28 50 30 126 30 78 0 86 -2 130 -33 l46 -33 51
43 51 42 -43 38 c-77 68 -246 99 -355 64z"/>
<path d="M18950 14275 l0 -335 75 0 75 0 0 335 0 335 -75 0 -75 0 0 -335z"/>
<path d="M19460 14275 l0 -335 75 0 75 0 2 201 3 202 165 -202 164 -201 63 0
63 0 0 335 0 335 -75 0 -75 0 -2 -201 -3 -202 -164 202 -165 201 -63 0 -63 0
0 -335z"/>
<path d="M21360 14275 l0 -335 255 0 255 0 0 60 0 60 -180 0 -180 0 0 80 0 80
155 0 155 0 0 60 0 60 -155 0 -155 0 0 75 0 75 175 0 175 0 0 60 0 60 -250 0
-250 0 0 -335z"/>
<path d="M22190 14276 l0 -336 75 0 75 0 0 95 0 95 74 0 73 0 64 -95 64 -94
83 -1 c64 0 81 3 76 13 -4 6 -34 50 -67 96 -32 46 -61 89 -63 96 -3 6 13 24
35 38 26 17 48 45 66 82 24 48 27 64 23 118 -8 98 -51 160 -138 201 -40 18
-68 21 -242 24 l-198 4 0 -336z m371 188 c23 -13 39 -33 48 -60 13 -37 12 -44
-5 -80 -28 -57 -69 -74 -176 -74 l-88 0 0 113 c0 63 3 117 8 121 4 5 46 6 93
4 62 -3 95 -10 120 -24z"/>
<path d="M23550 14275 l0 -337 228 4 c212 4 231 6 280 28 71 31 102 76 102
148 0 82 -38 143 -103 165 -5 1 7 19 27 40 79 84 55 206 -52 259 -44 22 -60
23 -264 26 l-218 4 0 -337z m370 212 c71 -24 75 -110 7 -139 -19 -8 -70 -13
-127 -13 l-95 0 -3 69 c-2 38 -1 75 2 83 7 17 165 17 216 0z m45 -278 c36 -17
53 -58 39 -96 -15 -44 -55 -56 -184 -57 l-115 -1 -3 74 c-2 41 0 81 3 89 4 12
25 14 118 10 68 -3 124 -10 142 -19z"/>
<path d="M24480 14275 l0 -335 255 0 255 0 0 60 0 60 -180 0 -180 0 0 80 0 80
155 0 155 0 0 60 0 60 -155 0 -155 0 0 75 0 75 175 0 175 0 0 60 0 60 -250 0
-250 0 0 -335z"/>
<path d="M25310 14275 l0 -335 260 0 260 0 0 60 0 60 -185 0 -185 0 0 80 0 80
155 0 155 0 0 60 0 60 -155 0 -155 0 0 75 0 75 180 0 180 0 0 60 0 60 -255 0
-255 0 0 -335z"/>
<path d="M26150 14276 l0 -336 75 0 75 0 0 95 0 95 73 0 72 -1 64 -94 65 -95
83 0 84 0 -48 68 c-26 37 -60 84 -75 106 l-28 38 39 28 c53 39 79 79 91 138
11 59 4 113 -20 162 -24 47 -55 74 -115 102 -45 21 -68 23 -242 26 l-193 4 0
-336z m332 204 c50 -14 88 -61 88 -108 -1 -89 -50 -122 -182 -122 l-88 0 0
113 c0 63 3 117 7 120 10 11 134 8 175 -3z"/>
</g>
</svg>
